<svg width="201" height="45" viewBox="0 0 201 45" fill="none" xmlns="http://www.w3.org/2000/svg">
<g filter="url(#filter0_d_20_188)">
<path d="M22.05 7.56C13.6998 7.56 6.92999 14.3292 6.92999 22.6806V30.3816C6.92999 32.2498 8.44427 33.7639 10.3123 33.7639H15.7219V35.9234C15.7219 36.6448 16.3069 37.2298 17.0282 37.2298C17.7499 37.2298 18.3346 36.6448 18.3346 35.9234V35.0431C18.3346 34.8406 18.4991 34.6758 18.7019 34.6758C18.9044 34.6758 19.0694 34.8403 19.0694 35.0431V35.9234C19.0694 36.6448 19.6539 37.2298 20.3758 37.2298C21.0971 37.2298 21.6821 36.6448 21.6821 35.9234V35.0431C21.6821 34.8406 21.8464 34.6758 22.0489 34.6758C22.2521 34.6758 22.4169 34.8403 22.4169 35.0431V35.9234C22.4169 36.6448 23.0019 37.2298 23.7233 37.2298C24.4447 37.2298 25.0297 36.6448 25.0297 35.9234V35.0431C25.0297 34.8406 25.194 34.6758 25.3969 34.6758C25.5999 34.6758 25.7642 34.8403 25.7642 35.0431V35.9234C25.7642 36.6448 26.3492 37.2298 27.0706 37.2298C27.792 37.2298 28.377 36.6448 28.377 35.9234V33.7639H33.7866C35.6554 33.7634 37.1698 32.2493 37.1698 30.3811V22.6807C37.1698 14.3299 30.4006 7.56012 22.0498 7.56012L22.05 7.56ZM20.2019 31.4862L21.6846 28.9191C21.8472 28.6376 22.2541 28.6376 22.4163 28.9191L23.8987 31.4862C24.0614 31.7684 23.8584 32.1206 23.5329 32.1206H20.5685C20.2429 32.1206 20.0388 31.7686 20.2019 31.4862ZM11.1143 25.5077C11.1143 23.2596 12.9368 21.4364 15.1856 21.4364C17.4338 21.4364 19.2569 23.2597 19.2569 25.5077C19.2569 27.7564 17.4337 29.579 15.1856 29.579C12.9366 29.5795 11.1143 27.7565 11.1143 25.5077ZM28.9151 29.5795C26.667 29.5795 24.8438 27.7568 24.8438 25.5082C24.8438 23.2601 26.6671 21.4369 28.9151 21.4369C31.1638 21.4369 32.9867 23.2601 32.9867 25.5082C32.9864 27.7566 31.1632 29.5795 28.9151 29.5795Z" fill="url(#paint0_linear_20_188)"/>
</g>
<path d="M60.008 30.668C58.904 30.668 57.928 30.476 57.08 30.092C56.248 29.708 55.592 29.172 55.112 28.484C54.632 27.796 54.376 27.028 54.344 26.18H56.12C56.2 26.996 56.56 27.716 57.2 28.34C57.84 28.948 58.776 29.252 60.008 29.252C61.144 29.252 62.04 28.964 62.696 28.388C63.368 27.796 63.704 27.052 63.704 26.156C63.704 25.436 63.52 24.86 63.152 24.428C62.784 23.98 62.328 23.652 61.784 23.444C61.24 23.22 60.488 22.98 59.528 22.724C58.408 22.42 57.52 22.124 56.864 21.836C56.208 21.548 55.648 21.1 55.184 20.492C54.72 19.884 54.488 19.06 54.488 18.02C54.488 17.156 54.712 16.388 55.16 15.716C55.608 15.028 56.24 14.492 57.056 14.108C57.872 13.724 58.808 13.532 59.864 13.532C61.416 13.532 62.664 13.916 63.608 14.684C64.568 15.436 65.12 16.412 65.264 17.612H63.44C63.328 16.924 62.952 16.316 62.312 15.788C61.672 15.244 60.808 14.972 59.72 14.972C58.712 14.972 57.872 15.244 57.2 15.788C56.528 16.316 56.192 17.044 56.192 17.972C56.192 18.676 56.376 19.244 56.744 19.676C57.112 20.108 57.568 20.436 58.112 20.66C58.672 20.884 59.424 21.124 60.368 21.38C61.456 21.684 62.336 21.988 63.008 22.292C63.68 22.58 64.248 23.028 64.712 23.636C65.176 24.244 65.408 25.06 65.408 26.084C65.408 26.868 65.2 27.612 64.784 28.316C64.368 29.02 63.752 29.588 62.936 30.02C62.12 30.452 61.144 30.668 60.008 30.668ZM75.7344 30.5L70.3344 24.62V30.5H68.6544V12.74H70.3344V23.252L75.6144 17.396H77.9664L71.7504 23.924L78.0144 30.5H75.7344ZM92.0416 23.276C92.0416 23.852 92.0256 24.292 91.9936 24.596H81.1216C81.1696 25.588 81.4096 26.436 81.8416 27.14C82.2736 27.844 82.8416 28.38 83.5456 28.748C84.2496 29.1 85.0176 29.276 85.8496 29.276C86.9376 29.276 87.8496 29.012 88.5856 28.484C89.3376 27.956 89.8336 27.244 90.0736 26.348H91.8496C91.5296 27.628 90.8416 28.676 89.7856 29.492C88.7456 30.292 87.4336 30.692 85.8496 30.692C84.6176 30.692 83.5136 30.42 82.5376 29.876C81.5616 29.316 80.7936 28.532 80.2336 27.524C79.6896 26.5 79.4176 25.308 79.4176 23.948C79.4176 22.588 79.6896 21.396 80.2336 20.372C80.7776 19.348 81.5376 18.564 82.5136 18.02C83.4896 17.476 84.6016 17.204 85.8496 17.204C87.0976 17.204 88.1856 17.476 89.1136 18.02C90.0576 18.564 90.7776 19.3 91.2736 20.228C91.7856 21.14 92.0416 22.156 92.0416 23.276ZM90.3376 23.228C90.3536 22.252 90.1536 21.42 89.7376 20.732C89.3376 20.044 88.7856 19.524 88.0816 19.172C87.3776 18.82 86.6096 18.644 85.7776 18.644C84.5296 18.644 83.4656 19.044 82.5856 19.844C81.7056 20.644 81.2176 21.772 81.1216 23.228H90.3376ZM106.971 23.276C106.971 23.852 106.955 24.292 106.923 24.596H96.0513C96.0993 25.588 96.3393 26.436 96.7713 27.14C97.2033 27.844 97.7713 28.38 98.4753 28.748C99.1793 29.1 99.9473 29.276 100.779 29.276C101.867 29.276 102.779 29.012 103.515 28.484C104.267 27.956 104.763 27.244 105.003 26.348H106.779C106.459 27.628 105.771 28.676 104.715 29.492C103.675 30.292 102.363 30.692 100.779 30.692C99.5473 30.692 98.4433 30.42 97.4673 29.876C96.4913 29.316 95.7233 28.532 95.1633 27.524C94.6193 26.5 94.3473 25.308 94.3473 23.948C94.3473 22.588 94.6193 21.396 95.1633 20.372C95.7073 19.348 96.4673 18.564 97.4433 18.02C98.4193 17.476 99.5313 17.204 100.779 17.204C102.027 17.204 103.115 17.476 104.043 18.02C104.987 18.564 105.707 19.3 106.203 20.228C106.715 21.14 106.971 22.156 106.971 23.276ZM105.267 23.228C105.283 22.252 105.083 21.42 104.667 20.732C104.267 20.044 103.715 19.524 103.011 19.172C102.307 18.82 101.539 18.644 100.707 18.644C99.4593 18.644 98.3953 19.044 97.5153 19.844C96.6353 20.644 96.1473 21.772 96.0513 23.228H105.267ZM111.725 12.74V30.5H110.045V12.74H111.725ZM117.713 18.812V26.948C117.713 27.748 117.865 28.3 118.169 28.604C118.473 28.908 119.009 29.06 119.777 29.06H121.313V30.5H119.513C118.329 30.5 117.449 30.228 116.873 29.684C116.297 29.124 116.009 28.212 116.009 26.948V18.812H114.185V17.396H116.009V14.108H117.713V17.396H121.313V18.812H117.713ZM129.82 30.692C128.588 30.692 127.476 30.42 126.484 29.876C125.508 29.316 124.732 28.532 124.156 27.524C123.596 26.5 123.316 25.308 123.316 23.948C123.316 22.588 123.604 21.404 124.18 20.396C124.756 19.372 125.54 18.588 126.532 18.044C127.524 17.484 128.636 17.204 129.868 17.204C131.1 17.204 132.212 17.484 133.204 18.044C134.212 18.588 134.996 19.372 135.556 20.396C136.132 21.404 136.42 22.588 136.42 23.948C136.42 25.292 136.132 26.476 135.556 27.5C134.98 28.524 134.188 29.316 133.18 29.876C132.172 30.42 131.052 30.692 129.82 30.692ZM129.82 29.228C130.684 29.228 131.484 29.036 132.22 28.652C132.956 28.252 133.548 27.66 133.996 26.876C134.46 26.076 134.692 25.1 134.692 23.948C134.692 22.796 134.468 21.828 134.02 21.044C133.572 20.244 132.98 19.652 132.244 19.268C131.508 18.868 130.708 18.668 129.844 18.668C128.98 18.668 128.18 18.868 127.444 19.268C126.708 19.652 126.116 20.244 125.668 21.044C125.236 21.828 125.02 22.796 125.02 23.948C125.02 25.1 125.236 26.076 125.668 26.876C126.116 27.66 126.7 28.252 127.42 28.652C128.156 29.036 128.956 29.228 129.82 29.228ZM145.627 17.156C147.195 17.156 148.475 17.644 149.467 18.62C150.459 19.58 150.955 20.98 150.955 22.82V30.5H149.299V23.012C149.299 21.588 148.939 20.5 148.219 19.748C147.515 18.996 146.547 18.62 145.315 18.62C144.051 18.62 143.043 19.02 142.291 19.82C141.539 20.62 141.163 21.796 141.163 23.348V30.5H139.483V17.396H141.163V19.628C141.579 18.828 142.179 18.22 142.963 17.804C143.747 17.372 144.635 17.156 145.627 17.156Z" fill="white"/>
<path d="M164.726 27.524H158.438L157.43 30.5H153.134L159.23 13.652H163.982L170.078 30.5H165.734L164.726 27.524ZM163.67 24.356L161.582 18.188L159.518 24.356H163.67ZM184.773 19.076C184.773 20.052 184.549 20.948 184.101 21.764C183.653 22.564 182.965 23.212 182.037 23.708C181.109 24.204 179.957 24.452 178.581 24.452H176.037V30.5H171.933V13.652H178.581C179.925 13.652 181.061 13.884 181.989 14.348C182.917 14.812 183.613 15.452 184.077 16.268C184.541 17.084 184.773 18.02 184.773 19.076ZM178.269 21.188C179.053 21.188 179.637 21.004 180.021 20.636C180.405 20.268 180.597 19.748 180.597 19.076C180.597 18.404 180.405 17.884 180.021 17.516C179.637 17.148 179.053 16.964 178.269 16.964H176.037V21.188H178.269ZM199.75 19.076C199.75 20.052 199.526 20.948 199.078 21.764C198.63 22.564 197.942 23.212 197.014 23.708C196.086 24.204 194.934 24.452 193.558 24.452H191.014V30.5H186.91V13.652H193.558C194.902 13.652 196.038 13.884 196.966 14.348C197.894 14.812 198.59 15.452 199.054 16.268C199.518 17.084 199.75 18.02 199.75 19.076ZM193.246 21.188C194.03 21.188 194.614 21.004 194.998 20.636C195.382 20.268 195.574 19.748 195.574 19.076C195.574 18.404 195.382 17.884 194.998 17.516C194.614 17.148 194.03 16.964 193.246 16.964H191.014V21.188H193.246Z" fill="#FF003D"/>
<defs>
<filter id="filter0_d_20_188" x="6.74999" y="7.56" width="30.5998" height="30.0298" filterUnits="userSpaceOnUse" color-interpolation-filters="sRGB">
<feFlood flood-opacity="0" result="BackgroundImageFix"/>
<feColorMatrix in="SourceAlpha" type="matrix" values="0 0 0 0 0 0 0 0 0 0 0 0 0 0 0 0 0 0 127 0" result="hardAlpha"/>
<feOffset dy="0.18"/>
<feGaussianBlur stdDeviation="0.09"/>
<feComposite in2="hardAlpha" operator="out"/>
<feColorMatrix type="matrix" values="0 0 0 0 1 0 0 0 0 0 0 0 0 0 0 0 0 0 0.25 0"/>
<feBlend mode="normal" in2="BackgroundImageFix" result="effect1_dropShadow_20_188"/>
<feBlend mode="normal" in="SourceGraphic" in2="effect1_dropShadow_20_188" result="shape"/>
</filter>
<linearGradient id="paint0_linear_20_188" x1="22.0499" y1="7.56" x2="22.0499" y2="37.2298" gradientUnits="userSpaceOnUse">
<stop stop-color="#FF003D"/>
<stop offset="1" stop-color="#FF000F"/>
</linearGradient>
</defs>
</svg>
